<svg width="84" height="84" viewBox="0 0 84 84" fill="none" xmlns="http://www.w3.org/2000/svg">
<path d="M41.6822 83.9958C18.2728 83.6656 -0.413345 64.6407 0.00695347 41.5661C0.431541 18.3071 19.3164 -0.254663 42.2941 0.00264306C65.542 0.262808 84.3954 19.4735 83.9937 42.491C83.5877 65.7357 64.6414 84.3217 41.6822 83.9958ZM41.5035 68.4645C45.8137 63.337 49.4878 59.263 52.8101 54.9217C55.3734 51.5738 57.8137 48.0545 59.7494 44.3207C63.6307 36.8302 62.547 29.5556 57.1561 23.2545C51.6179 16.7804 44.4042 14.6433 36.1526 17.082C24.5086 20.5228 18.3271 33.5053 24.2484 44.0491C29.0018 52.5116 35.4464 60.0249 41.5021 68.466L41.5035 68.4645Z" fill="black"/>
<path d="M41.5037 68.4645C35.4466 60.0235 29.002 52.5102 24.2501 44.0477C18.3287 33.5039 24.5103 20.5214 36.1542 17.0806C44.4058 14.6419 51.6195 16.779 57.1577 23.2531C62.5487 29.5542 63.6309 36.8303 59.751 44.3193C57.8168 48.0531 55.375 51.5724 52.8118 54.9203C49.488 59.2616 45.8154 63.337 41.5052 68.4631L41.5037 68.4645ZM41.997 47.0567C47.9598 47.0524 52.8418 42.2494 52.9447 36.2885C53.0477 30.2561 48.0484 25.2215 41.9755 25.2415C35.8497 25.2615 30.9348 30.2361 31.042 36.3085C31.1478 42.2794 36.0227 47.0624 41.997 47.0567Z" fill="white"/>
<path d="M41.9967 47.0567C36.0224 47.061 31.1475 42.2794 31.0418 36.3085C30.9345 30.236 35.8495 25.26 41.9752 25.2415C48.0481 25.2214 53.0474 30.2575 52.9444 36.2884C52.8415 42.2508 47.9595 47.0524 41.9967 47.0567Z" fill="black"/>
</svg>
