<svg width="84" height="84" viewBox="0 0 84 84" fill="none" xmlns="http://www.w3.org/2000/svg">
<g clip-path="url(#clip0_201_530)">
<path d="M42.1323 84C19.0596 84.0759 0.105852 65.311 -4.21965e-05 42.2863C-0.105937 19.0675 18.655 0.139725 41.9097 -4.86723e-05C64.9118 -0.137108 83.8601 18.6604 83.9986 41.7516C84.1384 65.0124 65.3979 83.9226 42.1323 84ZM64.8317 24.6938H19.2619C25.8205 31.6608 32.796 39.1027 39.8149 46.5012C41.1766 47.9369 42.8288 47.9722 44.1918 46.5406C51.2325 39.1502 58.2174 31.7055 64.8331 24.6938H64.8317ZM17.6653 59.3618H66.3672C60.7331 54.2621 55.5673 49.5871 50.8442 45.3111C47.6877 47.139 44.9032 50.0254 42.1527 49.9942C39.2596 49.9603 36.3991 47.1336 33.1734 45.3315C28.457 49.5993 23.2926 54.2715 17.6653 59.3618ZM68.6914 26.9424C63.3465 32.6202 58.3097 37.9696 53.1195 43.4832C57.7952 47.7158 63.0777 52.4979 68.6914 57.58V26.9437V26.9424ZM30.6917 43.6976C25.5219 38.0999 20.5435 32.707 15.4551 27.1961V57.4836C21.0512 52.4206 26.2441 47.7212 30.6917 43.6976Z" fill="black"/>
<path d="M64.832 24.6938C58.2176 31.707 51.2327 39.1503 44.1907 46.5406C42.8277 47.9709 41.1754 47.9357 39.8137 46.5013C32.7935 39.1028 25.818 31.6608 19.2607 24.6938H64.832Z" fill="white"/>
<path d="M17.6665 59.3618C23.2938 54.2703 28.4582 49.598 33.1746 45.3315C36.4003 47.1336 39.2608 49.9603 42.1539 49.9943C44.9044 50.0268 47.6889 47.1391 50.8454 45.3112C55.5699 49.5872 60.7343 54.2621 66.3684 59.3618H17.6665Z" fill="white"/>
<path d="M68.693 26.9424V57.5786C63.0792 52.4966 57.7967 47.7144 53.1211 43.4818C58.3113 37.9682 63.348 32.6188 68.693 26.941V26.9424Z" fill="white"/>
<path d="M30.6931 43.6976C26.2455 47.7226 21.0527 52.4206 15.4565 57.4837V27.1962C20.5449 32.7071 25.5247 38.0999 30.6931 43.6976Z" fill="white"/>
</g>
<defs>
<clipPath id="clip0_201_530">
<rect width="84" height="84" fill="white"/>
</clipPath>
</defs>
</svg>
