<svg width="84" height="84" viewBox="0 0 84 84" fill="none" xmlns="http://www.w3.org/2000/svg">
<path d="M42.5054 0.00470552C65.7652 0.355507 84.425 19.4804 83.9926 42.5277C83.5571 65.676 64.5966 84.2793 41.7259 83.9968C18.5637 83.7112 -0.27591 64.5584 0.00305868 41.5809C0.283577 18.4544 19.4998 -0.341439 42.507 0.00470552H42.5054ZM26.3547 41.9084C26.3547 50.2795 26.3268 58.6506 26.3671 67.0202C26.3857 71.0218 28.0177 73.2803 31.9263 73.4759C38.5906 73.8096 45.2935 73.8515 51.9578 73.5333C56.1253 73.3331 57.7185 71.1724 57.7402 66.9705C57.765 62.3247 57.5712 57.6774 57.5821 53.03C57.6084 41.0547 57.7247 29.0809 57.7386 17.1055C57.7433 12.75 56.1051 10.5924 51.7796 10.3658C45.4237 10.0305 39.0245 10.0274 32.6671 10.3565C27.9603 10.5986 26.3717 12.722 26.3594 17.4159C26.3377 25.5806 26.3532 33.7437 26.3563 41.9084H26.3547Z" fill="black"/>
<path d="M26.3533 41.9084C26.3533 33.7437 26.3362 25.5806 26.3579 17.4159C26.3703 12.722 27.9604 10.5986 32.6657 10.3564C39.0231 10.0289 45.4223 10.032 51.7781 10.3657C56.1037 10.5939 57.7418 12.7515 57.7372 17.1055C57.7232 29.0808 57.607 41.0547 57.5807 53.03C57.5714 57.6758 57.7635 62.3232 57.7387 66.9705C57.717 71.1724 56.1238 73.3346 51.9564 73.5333C45.2921 73.853 38.5891 73.8096 31.9249 73.4758C28.0178 73.2803 26.3858 71.0218 26.3657 67.0202C26.3254 58.6491 26.3533 50.2779 26.3517 41.9068L26.3533 41.9084ZM54.4268 18.3333H29.7009V62.3713H54.4268V18.3333ZM42.8124 65.201C42.3908 65.1854 41.9677 65.1684 41.5462 65.1529C40.7356 66.2689 39.3067 67.3818 39.302 68.4994C39.2989 69.4758 40.9867 71.312 41.774 71.2329C42.9147 71.118 44.5854 69.7443 44.7838 68.6764C44.9697 67.6752 43.5331 66.3713 42.8108 65.201H42.8124ZM37.7135 13.4298C37.7863 13.7791 37.8576 14.1283 37.9305 14.4776H46.9768C44.7435 11.8714 42.4172 13.0464 40.483 12.826C39.595 12.7251 38.6387 13.211 37.715 13.4314L37.7135 13.4298Z" fill="white"/>
<path d="M54.4266 18.3333V62.3713H29.7007V18.3333H54.4266Z" fill="black"/>
<path d="M42.812 65.201C43.5342 66.3714 44.9709 67.6737 44.785 68.6764C44.5866 69.7443 42.9159 71.1181 41.7752 71.2329C40.9879 71.3121 39.3001 69.4758 39.3032 68.4995C39.3063 67.3819 40.7368 66.2674 41.5474 65.1529C41.9689 65.1684 42.392 65.1855 42.8136 65.201H42.812Z" fill="black"/>
<path d="M37.7135 13.4299C38.6387 13.2095 39.5934 12.7236 40.4814 12.8245C42.4156 13.0465 44.7419 11.8699 46.9752 14.4761H37.9289C37.856 14.1268 37.7848 13.7776 37.7119 13.4283L37.7135 13.4299Z" fill="black"/>
</svg>
